<?xml version="1.0" encoding="UTF-8"?>
<svg id="uuid-35492697-626e-470b-9d9d-828f8922de55" data-name="Layer 1" xmlns="http://www.w3.org/2000/svg" viewBox="0 0 500.91322 500.91322">
  <defs>
    <style>
      .uuid-854eb711-d256-4939-88aa-c55df99a5518 {
        fill: #095faa;
      }

      .uuid-a224344e-bb6a-482e-8a9b-3d8c84de8483 {
        fill: #0e63ac;
      }

      .uuid-96fce8ac-c531-4e59-9473-169690a49dee {
        fill: #f9fbfc;
      }

      .uuid-f38a8086-00cf-4d0a-8c4a-7c285d4660ae {
        fill: #1065ac;
      }

      .uuid-31110d5f-8550-48dd-b46a-e346987e690f {
        fill: #8ccefa;
      }

      .uuid-8922e24f-781f-4a17-b5ae-e50a3da53ed4 {
        fill: #1064ac;
      }

      .uuid-43aaa6ec-29b7-4dad-86c7-1baca188c737 {
        fill: #0b61aa;
      }

      .uuid-23a18839-d67d-4633-8edc-8112b4c91175 {
        fill: #0e63ab;
      }

      .uuid-d61a6b1f-ac23-4d5a-88cc-3f80411a8351 {
        fill: #fafbfd;
      }

      .uuid-4dc7429e-62c2-427b-abe1-27e16e06864d {
        fill: #025ba7;
      }

      .uuid-6269364e-f24d-4107-a2d0-2d9f4d78fc40 {
        fill: #8dcffb;
      }

      .uuid-287a04ca-50e8-4516-8843-fdd24fc61fb8 {
        fill: #0c62ab;
      }

      .uuid-c8853abf-b4aa-43af-89ee-3ec4bc45120a {
        fill: #f6f9fb;
      }

      .uuid-6f37d07f-2e62-49bb-bc8e-b670b847305f {
        fill: #f4f8fb;
      }

      .uuid-8b3f3505-d69d-4c6c-8bdf-de5829e3022e {
        fill: #f8fafc;
      }

      .uuid-b263e8fc-0440-4851-8d12-8468c7357f12 {
        fill: #064c99;
      }

      .uuid-638a9a2b-4c35-45bb-abeb-73753546822e {
        fill: #fcfdfd;
      }

      .uuid-6eab0212-e4a3-4352-8e42-22fdec2d2424 {
        fill: #065da8;
      }
    </style>
  </defs>
  <path class="uuid-b263e8fc-0440-4851-8d12-8468c7357f12" d="M500.91322,250.45661c0,138.32337-112.13324,250.45661-250.45661,250.45661S0,388.77997,0,250.45661,112.13324,0,250.45661,0s250.45661,112.13324,250.45661,250.45661ZM490.21688,250.44055c0-132.42474-107.35147-239.77621-239.77621-239.77621S10.66446,118.01581,10.66446,250.44055s107.35147,239.77621,239.77621,239.77621,239.77621-107.35147,239.77621-239.77621Z"/>
  <path class="uuid-8b3f3505-d69d-4c6c-8bdf-de5829e3022e" d="M490.21688,250.44055c0,132.42474-107.35147,239.77621-239.77621,239.77621S10.66446,382.8653,10.66446,250.44055,118.01593,10.66434,250.44067,10.66434s239.77621,107.35147,239.77621,239.77621ZM480.41908,250.44479c0-127.01157-102.96322-229.97479-229.97479-229.97479S20.46949,123.43322,20.46949,250.44479s102.96322,229.97479,229.97479,229.97479,229.97479-102.96322,229.97479-229.97479Z"/>
  <path class="uuid-4dc7429e-62c2-427b-abe1-27e16e06864d" d="M480.41908,250.44479c0,127.01157-102.96322,229.97479-229.97479,229.97479S20.46949,377.45636,20.46949,250.44479,123.43271,20.46999,250.44428,20.46999s229.97479,102.96322,229.97479,229.97479ZM83.19701,311.69718c-.7504,7.78802.5511,16.59317,0,24.5,13.41068,3.07656,27.21053-.99542,39.99366-4.99602-1.14792,8.65942-1.63895,17.37831.0124,26.00084,1.66373,1.63678,14.60792-7.57279,16.9839-9.00457-2.18739,6.29496,6.12131,38.7408,11.63526,39.81126,12.12802-3.6169,22.77997-11.2123,31.88805-19.77103,1.64285-1.54376,9.92392-12.16404,11.47474-11.03788,17.85675,55.94881,80.31818,75.49448,133.01199,81.9974v-20.5c0-9.6706,13.43534-35.19771,19.19536-43.80464,3.71425-5.55004,4.93893-8.12696,12.26226-8.72959,17.07212-1.40484,37.08682,8.22461,49.97867-10.02948,8.03661-11.37937,4.15645-18.8915,4.62967-30.36124.14501-3.51458,3.78922-8.10326,3.8566-12.18519.04524-2.74093-1.86992-4.82145-1.83166-6.91076.03661-1.99944,2.38719-5.78138,2.53524-9.14224.1104-2.5062-1.29526-5.5496-.57966-8.29453,26.3742-3.26282,13.8039-32.994,7.1266-48.7154-1.60416-3.77693-3.7813-8.80167-5.62818-12.37182-1.31708-2.54601-8.1668-11.76215-8.37858-12.65892-.46321-1.96149,1.97666-7.32463,1.91036-10.79129-.15518-8.11348-7.9871-21.68988-11.90789-29.17367-4.20358-8.02356-4.7917-9.32423-7.98069-18.01931-8.32908-22.70997-58.34374-56.12361-79.89002-68.10998-39.28756-21.85597-93.22078-34.31435-137.48623-22.8901-3.79807.98023-9.76058.83413-8.65186,5.96603.24439,1.13122,4.4435,8.17779,5.42556,9.63659,3.01004,4.47123,7.0963,7.90239,10.41414,12.0755-25.03507,2.66916-48.3637,11.77763-68.8512,26.17251-2.4733,4.26891,15.8628,18.35154,19.84689,20.33268-21.49163,9.83728-43.28626,22.22509-57.02976,42.00153-.01025,3.49292,22.00078,17.45279,27.03108,17.51457.36592,1.53426-.23047,1.59915-1.06093,2.42462-12.11669,12.04381-20.03056,18.84684-28.45712,34.54277-2.06145,3.8398-9.49678,17.23486-6.4905,20.52974,3.66496,4.0168,26.77496,8.3605,33.01184,8.50148-8.13271,13.07292-16.50136,29.93703-17.99996,45.49016Z"/>
  <path class="uuid-c8853abf-b4aa-43af-89ee-3ec4bc45120a" d="M83.19701,311.69718c1.4986-15.55313,9.86725-32.41724,17.99996-45.49016-6.23687-.14097-29.34687-4.48467-33.01184-8.50148-3.00627-3.29488,4.42905-16.68993,6.4905-20.52974,8.42657-15.69592,16.34044-22.49896,28.45712-34.54277.83046-.82547,1.42686-.89035,1.06093-2.42462-5.03029-.06178-27.04133-14.02165-27.03108-17.51457,13.7435-19.77643,35.53813-32.16424,57.02976-42.00153-3.98408-1.98114-22.32019-16.06377-19.84689-20.33268,20.48751-14.39488,43.81614-23.50335,68.8512-26.17251-3.31784-4.1731-7.4041-7.60427-10.41414-12.0755-.98207-1.4588-5.18117-8.50537-5.42556-9.63659-1.10872-5.1319,4.85378-4.98581,8.65186-5.96603,44.26546-11.42426,98.19867,1.03413,137.48623,22.8901,21.54628,11.98636,71.56094,45.4,79.89002,68.10998,3.18899,8.69507,3.77712,9.99575,7.98069,18.01931,3.92079,7.48379,11.75271,21.06019,11.90789,29.17367.0663,3.46666-2.37357,8.8298-1.91036,10.79129.21178.89678,7.0615,10.11291,8.37858,12.65892,1.84688,3.57016,4.02401,8.59489,5.62818,12.37182,6.6773,15.7214,19.24759,45.45258-7.1266,48.7154-.7156,2.74494.69006,5.78833.57966,8.29453-.14805,3.36086-2.49863,7.1428-2.53524,9.14224-.03826,2.08931,1.8769,4.16983,1.83166,6.91076-.06737,4.08193-3.71159,8.67061-3.8566,12.18519-.47323,11.46973,3.40694,18.98187-4.62967,30.36124-12.89185,18.2541-32.90655,8.62465-49.97867,10.02948-7.32332.60262-8.548,3.17955-12.26226,8.72959-5.76002,8.60694-19.19536,34.13405-19.19536,43.80464v20.5c-52.69381-6.50292-115.15523-26.04859-133.01199-81.9974-1.55082-1.12617-9.83189,9.49411-11.47474,11.03788-9.10808,8.55874-19.76003,16.15413-31.88805,19.77103-5.51394-1.07046-13.82265-33.51631-11.63526-39.81126-2.37598,1.43178-15.32017,10.64135-16.9839,9.00457-1.65135-8.62253-1.16033-17.34141-.0124-26.00084-12.78313,4.0006-26.58298,8.07258-39.99366,4.99602.5511-7.90683-.7504-16.71198,0-24.5ZM97.69701,258.19718c6.49218.65877,13.89796-.4824,20.5,0-18.29732,18.59792-27.7315,43.86095-27.00515,70.00517,15.31458.76538,30.6373-3.86314,43.99519-11.00489-1.75392,8.30666-3.85426,16.37176-2.98475,24.99473,1.56829,1.7268,15.74263-11.79285,17.9846-12.99487-1.33555,15.75353-3.08696,34.07403,5.61167,47.92321,18.92423-7.61036,31.0663-24.59985,43.3864-39.92098,7.43831,59.66746,67.62727,83.72911,120.00754,92.00255.879-15.87814,5.59479-31.44044,13.19923-45.3102,2.18143-3.97872,11.10624-18.82434,13.76049-21.23951,15.04397-13.68887,52.08807,9.84539,59.58862-17.41234,2.51527-9.14073-1.19776-14.79421-.34798-21.32456.33836-2.60025,3.45394-5.33782,3.83785-9.20493.36052-3.63155-1.09409-6.30331-1.06956-9.04825.02149-2.40471,1.74305-4.251,2.06646-6.93355.44609-3.70007-1.36029-13.61558-.95625-14.89059.76789-2.42316,4.9356-1.3913,7.16098-1.90566,13.26661-3.06636,9.80617-11.37961,7.02887-21.49958-1.91017-6.96033-4.98757-15.39591-8.0904-21.90957-2.26148-4.74745-12.5172-18.73741-13.0044-21.05742-.76047-3.62126,1.8939-6.49499,1.91423-10.76879.03661-7.69335-6.0376-19.44996-9.89014-26.19349-1.52488-2.66916-5.53404-6.28604-6.44106-8.55894-1.96507-4.92426-.91442-8.38733-4.33307-14.66693-11.67396-21.44348-74.88236-61.32713-98.43532-70.56468-32.26974-12.65631-70.94919-17.56503-104.97926-10.50587-.69801.93665,4.05483,6.46055,4.9686,7.51653,6.42521,7.4252,13.19127,12.31124,20.76329,18.18315.82694.64127,1.83366-.01863,1.2581,2.28502-27.56957-1.45606-56.44054,3.49888-79.55896,18.98068-.9962,2.08819,9.52639,9.98602,11.65526,11.43345,6.13721,4.17274,13.10178,7.22616,19.90388,10.0861l-24.51066,6.48934c-17.13044,6.42774-33.07682,16.02849-45.40807,29.65384-.83178,4.74329,30.05529,18.52723,35.92339,17.37186-6.81569,5.4401-14.84535,9.27493-21.46965,15.01997-7.26547,6.3011-14.43597,15.36845-19.33804,23.66196-2.67214,4.52084-5.99335,10.36774-6.77348,15.32961,1.1204,1.75561,17.22402,5.68847,20.08151,5.97843Z"/>
  <path class="uuid-638a9a2b-4c35-45bb-abeb-73753546822e" d="M396.19174,207.19214c-17.71713-6.4198-34.19383-15.05962-48.98978,2.50993,9.24963.23931,20.47525-5.57963,26.99271,4.48304-8.40821,2.78171-17.70041,6.72476-23.99748,13.00199,5.71812.13498,11.51891-2.07278,17.28926-.77958,3.65603.81936,7.29534,5.89103,10.27315,6.73811,2.57703.73307,1.4351-4.52148,2.6595-5.72702,1.14553-1.12789,10.43616-2.31137,10.95268-8.03056,3.13956-1.82714,7.94685,4.17912,9.6533,6.48106,6.43709,8.68341,15.92853,34.27938,15.23301,44.86403-.09195,1.39927.1772,3.91804-1.63919,4.34813-8.46369-1.86013-16.73171-1.98927-25.27848-1.02537-2.65984-4.73748.73711-9.26428,1.85182-13.85326-8.32779-.31763-14.95946,15.63425-9.08236,20.58198,4.51007,3.79688,13.52796-.8595,19.08938.40872-.53642,3.30046,2.85642,14.68421.0647,16.57033-6.22271-.19281-11.40832,2.63988-17.02265,3.99025-1.58207.38052-3.20049-.69897-5.06-.16064-3.62595,1.04971-8.65766,8.74671-4.5166,7.57881,3.17295-.89487,6.13887-3.14915,10.29107-3.71674,19.25553-2.63214,24.28319,6.40432,6.24597,15.24664,9.96529,1.15966,10.39568,17.41604,4.65637,23.15631-6.41048,6.41156-17.5958,2.43866-25.1784.35619-16.35963-4.49296-55.65082-21.38649-63.68789-36.31211-6.49331-12.05872-4.12762-29.83538-9.79058-42.69915l33.97386,13.50565c-1.14821-10.63154-27.7472-24.89951-27.02816-32.96175.11889-1.33309,10.59349-12.81799,12.4587-15.64131,10.7161-16.22072,8.40057-27.35718,25.67785-40.32215,7.35172-5.51677,16.7053-10.55665,25.38754-13.61236,11.0037-3.87275,12.60133-4.93996,19.55023,5.50164,4.70773,7.07396,9.24818,16.87964,8.97048,25.5192Z"/>
  <path class="uuid-31110d5f-8550-48dd-b46a-e346987e690f" d="M241.21215,371.19408c1.45198,1.43829,1.80313-.09256,1.98371-1.4759.8068-6.18047-1.26074-14.13539-1.04007-21.06258.35519-11.15012,3.32737-23.35099,5.77932-34.22032l8.25193-22.23328c-.27226,2.89996.87661,5.60529,1.05108,8.45426,1.6822,27.46812-.37748,55.43765,2.08436,82.91459.09806,1.09446.46233,5.51414,1.86199,5.61894,12.24955-36.64885,9.13733-75.77486,11.12329-113.88577l6.85436-1.07693c15.81254,42.88792,11.1923,88.67503-6.52969,129.93897-30.22114-12.73067-59.80828-39.72615-57.30731-75.3409,1.28123-18.24528,12.85763-40.57092,24.89889-54.10096,12.68904-14.25792,11.29654-4.8461,7.69323,7.69331-7.43877,25.88674-23.50198,48.19246-12.49358,77.05301.54484,1.4284,5.32404,11.2635,5.78849,11.72357Z"/>
  <path class="uuid-6269364e-f24d-4107-a2d0-2d9f4d78fc40" d="M379.19678,159.18714c-7.4876,1.03551-15.46452,4.88807-22.35755,8.15227-24.05193,11.38979-46.18573,28.55596-63.2387,48.939-7.91002-4.28061-14.94549-8.22224-24.39876-8.08629-1.25605-1.11852,10.54163-16.63193,12.02287-18.46729,14.69252-18.20507,38.95768-38.94395,60.2985-48.7015,4.12418-1.88567,12.51494-6.2394,16.65504-4.30903,2.63499,1.22859,12.18158,10.76753,14.53317,13.46854.79304.91088,6.92266,8.6559,6.48543,9.0043Z"/>
  <path class="uuid-8b3f3505-d69d-4c6c-8bdf-de5829e3022e" d="M307.19268,420.19815l-21.00007-8.01208c11.62363-26.16453,16.85881-53.21917,15.01441-81.98862,10.72192,10.61593,18.06731,25.29039,22.88601,39.52115-7.64396,16.01459-15.91009,32.34533-16.90034,50.47955Z"/>
  <path class="uuid-6f37d07f-2e62-49bb-bc8e-b670b847305f" d="M294.89795,240.63329c0,13.89172-11.26146,25.15318-25.15318,25.15318s-25.15318-11.26146-25.15318-25.15318,11.26146-25.15318,25.15318-25.15318,25.15318,11.26146,25.15318,25.15318ZM262.19701,238.19718c1.74523.43534,1.99892-.72174,3.0067-1.49357,1.7645-1.35137,12.03257-11.64166,12.04347-13.00666.03355-4.20162-12.7541-4.22055-15.05018-.99977v15.5ZM257.19175,255.19216l-1.4898-28.98997c-7.3558,6.08379-8.03806,17.39993-3.3566,25.34669.58838.99877,3.86642,4.80319,4.8464,3.64328ZM282.31416,254.07315c10.50412.5408,7.68518-26.95379,1.39482-26.93275-2.13825.00715-9.36197,8.72634-11.3632,10.70286l9.96838,16.22989ZM268.17881,243.20276c-7.46295,1.40258-4.23217,10.27311-5.5526,15.99862,1.87109,3.12055,12.24768,2.58192,14.55066-.5621l-8.99806-15.43652Z"/>
  <path class="uuid-a224344e-bb6a-482e-8a9b-3d8c84de8483" d="M245.19701,219.19718c-.30425.36314-.74617.65802-1,1-32.77387-.9318-65.40342,2.84446-97.99972,4.99001-.29578-.21436.51022-1.23.98928-1.50035,2.19993-1.24149,12.64853-3.4975,15.83297-4.16713,11.63544-2.44671,27.81729-4.75482,39.63574-5.36426,14.20526-.73252,29.07419.32571,42.54172,5.04172Z"/>
  <path class="uuid-8922e24f-781f-4a17-b5ae-e50a3da53ed4" d="M292.19701,161.19718c.1781.95317-.78395,1.51251-1,2-24.37164-11.62132-49.22033-21.82051-75-30v-1c.60163.3868,11.61712.71805,14.25019,1.24986,12.53376,2.53149,28.15154,7.5593,39.41811,13.58184,4.26832,2.28163,19.82358,14.01849,22.3317,14.1683Z"/>
  <path class="uuid-96fce8ac-c531-4e59-9473-169690a49dee" d="M297.19701,143.19718c1.05009.8679,5.06802,1.4197,5.00991,4.49002-1.99655,1.84074-4.08734-1.86194-5.00991-2.49002v-2Z"/>
  <path class="uuid-96fce8ac-c531-4e59-9473-169690a49dee" d="M267.19701,110.19718c-1.56896-.71445-3.7596-1.18849-5.00651-2.51072-.34207-3.1558,6.09017-.25991,5.00651,1.51072v1Z"/>
  <path class="uuid-96fce8ac-c531-4e59-9473-169690a49dee" d="M254.19701,86.19718l-1,1c-.27248-.48003-2.14169-.80833-1.99993-1.99001,1.55872-.64852,2.42639.88566,2.99993.99001Z"/>
  <path class="uuid-96fce8ac-c531-4e59-9473-169690a49dee" d="M199.19701,113.19718v1l-3.01021-.5c-.00014-.90297,2.08281-.48628,3.01021-.5Z"/>
  <path class="uuid-d61a6b1f-ac23-4d5a-88cc-3f80411a8351" d="M257.19701,96.19718c.18013.19784-.15144,1.42949.00282,1.99566,5.85578-1.13417.22519-1.80227-.00282-1.99566-.37554-.31854-3.29754-7.76248-4-9l1-1c22.13675,4.02774,43.36741,14.05588,61.91143,26.58857,3.4442,2.32771,21.05356,15.4561,22.07983,17.92545.69407,1.67005-.65473,1.34948-1.2656,1.70421-2.7015,1.56875-10.49953,6.51462-13.08234,5.67766-1.19242-.38641-1.42778-2.21859-2.39516-2.91481-15.85205-11.40863-34.88117-22.64895-54.24815-25.98109,1.08367-1.77063-5.34857-4.66653-5.00651-1.51072,1.2469,1.32223,3.43754,1.79628,5.00651,2.51072,19.18058,8.7341,36.57644,18.02461,53.99939,30.01563l-23.66147,18.82089c-1.58499,1.19716-3.22276,2.28982-5.33792,2.16349-2.50812-.14981-18.06338-11.88667-22.3317-14.1683-11.26657-6.02254-26.88436-11.05035-39.41811-13.58184-2.63307-.53181-13.64855-.86306-14.25019-1.24986-.27121-.17436.24951-3.48769-4.99499-1.99473-.78189,3.17553,2.98064,2.35561,4.99499,2.99473,25.77967,8.17949,50.62836,18.37868,75,30-3.55144,8.01312-19.56598,19.56838-25,27-.24225-1.6824-1.68924-1.69194-3-2-9.63716-14.93091-78.55731-21.13138-96-20-.99155.06431-2.00622-.05324-2.99408.00524-.61001,4.04772,2.49923.97373,2.99408.99476,14.02356.59602,40.2911,6.52017,55.02099,9.47901,13.73606,2.7592,27.34988,6.31781,40.97901,9.52099.18946.29353-.16995,1.40704.00555,1.99295l2.99445.00705c-3.9229,5.365-7.99962,15.05595-12.56669,20.93325-2.39333,3.07995-6.28227,5.49934-8.43331,8.06675-13.46754-4.71601-28.33646-5.77425-42.54172-5.04172-11.81845.60944-28.0003,2.91755-39.63574,5.36426-3.18444.66963-13.63304,2.92564-15.83297,4.16713-.47906.27035-1.28507,1.28599-.98928,1.50035,32.5963-2.14555,65.22585-5.92181,97.99972-4.99001-2.04704,2.75791-5.23698,10.34665-5.73975,13.76127-.6165,4.18704,1.0068,14.58045.26266,16.20444-.94824,2.06942-9.1782,8.82015-11.49592,11.56128-22.42756,26.5246-26.71587,57.18003-51.98672,82.01328-2.16598,2.12847-10.27073,9.29076-12.51639,10.48327-1.20173.63816-1.89305,1.36839-3.51887.97164-2.8038-36.89058,22.37606-61.86263,49.97493-81.50503-21.83807,5.35571-39.27055,20.18108-57.49099,32.48859.19701-4.59043,6.38955-7.73751,7.49623-11.49866,1.15034-3.90954-8.20924,3.10647-9.3137,3.69141-14.03154,7.43138-29.63007,15.77665-45.66658,16.82309,3.01903-16.55166,15.26582-31.25645,29.9873-39.0075.27101-1.62033-1.35436-.95886-2.48687-.99901-4.687-.16617-9.04054,1.77524-13.50036.51685,24.0546-26.23686,61.47632-33.56221,95.50465-37.49529,5.84325-.67538,12.04255-.5401,17.86636-1.13279,1.13442-.11545,5.49597-.45485,5.61878-1.86645-23.90206-3.37572-48.39253-2.61468-72.20401,1.28037-18.26166,2.98722-51.80795,14.77711-68.53703,6.92684-3.10069-1.45502,2.41966-5.56364,4.27584-7.18803,10.54205-9.22555,22.56598-12.93188,35.46552-17.5345l-14.98728-4.48212c31.02819-17.901,67.69923-18.53012,102.48257-15.00331,8.57071.86902,17.61094,3.32155,26.03029,3.97819,1.10056.08583,3.72542.73899,3.47186-.97521-26.73745-10.59287-55.71211-15.34184-84.53424-14.05434-4.63613.2071-10.38669,1.83338-14.96639,2.03061-10.39504.44766-32.39426-4.27076-41.54313-9.43756-5.39123-3.04469-2.60631-3.79478,1.52841-5.57413,4.33668-1.86626,19.97583-6.97719,24.02283-6.97719h19.5l-14.99395-8.9888c33.26595-9.83393,68.89325-5.65768,101.7582,3.72455,8.69172,2.4813,17.4807,6.97165,26.23575,8.26425.26667.28425-.13055,3.22814,3.97977,2.51011l-1.0856-2.44061c-.93144-.3448-2.01567.0602-2.89416-.0695-18.2577-19.46072-76.79986-23.27719-102.35666-35.14334-2.6735-1.24132-15.42174-7.89825-16.62813-9.37134-1.25816-1.5363-1.16899-2.62312-1.02003-4.4782,11.89101-2.58909,24.13553-4.1098,36.38326-2.88554,6.80089.6798,12.93121,3.95666,19.62145,4.86833-1.85344-3.70123-7.29988-5.37464-6.99988-9.98991v-1c30.04771-.44437,73.24186,15.14475,98,32,.92256.62808,3.01335,4.33076,5.00991,2.49002.05811-3.07032-3.95982-3.62212-5.00991-4.49002-17.83277-14.73874-30.33796-22.08342-52.04121-30.45879-5.35088-2.06493-14.22361-3.36741-18.88295-6.11705-3.95902-2.33636-16.17316-16.15704-19.6092-20.39063-.73896-.91048-2.37954-2.79543-1.97927-4.01048,2.80005,1.48971,5.83057-.24146,9.02583-.09799,8.471.38037,38.12303,8.18361,43.4868,14.07494ZM209.19206,125.20733h-2.9901v.9797h2.9901v-.9797ZM137.69701,219.19718v1c.64935-.33333.64935-.66667,0-1ZM222.19671,254.20716c-28.80791,1.74956-61.04479,9.18297-81.99955,29.97996l81.99955-29.97996Z"/>
  <path class="uuid-287a04ca-50e8-4516-8843-fdd24fc61fb8" d="M222.19671,254.20716l-81.99955,29.97996c20.95477-20.79699,53.19164-28.23041,81.99955-29.97996Z"/>
  <path class="uuid-a224344e-bb6a-482e-8a9b-3d8c84de8483" d="M263.19701,188.19718c-13.62913-3.20318-27.24295-6.76179-40.97901-9.52099-14.7299-2.95883-40.99744-8.88298-55.02099-9.47901v-1c17.44269-1.13138,86.36284,5.06909,96,20Z"/>
  <path class="uuid-96fce8ac-c531-4e59-9473-169690a49dee" d="M216.19701,133.19718c-2.01435-.63912-5.77688.1808-4.99499-2.99473,5.2445-1.49296,4.72378,1.82037,4.99499,1.99473v1Z"/>
  <path class="uuid-96fce8ac-c531-4e59-9473-169690a49dee" d="M270.19701,171.19718c.87849.1297,1.96273-.2753,2.89416.0695l1.0856,2.44061c-4.11032.71803-3.71309-2.22586-3.97977-2.51011Z"/>
  <path class="uuid-96fce8ac-c531-4e59-9473-169690a49dee" d="M167.19701,168.19718v1c-.49485-.02103-3.60408,3.05296-2.99408-.99476.98786-.05848,2.00253.05908,2.99408-.00524Z"/>
  <path class="uuid-96fce8ac-c531-4e59-9473-169690a49dee" d="M266.19701,190.19718l-2.99445-.00705c-.1755-.5859.18391-1.69942-.00555-1.99295,1.31076.30806,2.75775.3176,3,2Z"/>
  <path class="uuid-96fce8ac-c531-4e59-9473-169690a49dee" d="M257.19701,96.19718c.228.1934,5.85859.86149.00282,1.99566-.15426-.56618.17731-1.79782-.00282-1.99566Z"/>
  <rect class="uuid-96fce8ac-c531-4e59-9473-169690a49dee" x="206.20195" y="125.20733" width="2.9901" height=".9797"/>
  <path class="uuid-96fce8ac-c531-4e59-9473-169690a49dee" d="M137.69701,219.19718c.64935.33333.64935.66667,0,1v-1Z"/>
  <path class="uuid-6eab0212-e4a3-4352-8e42-22fdec2d2424" d="M97.69701,258.19718c-2.85749-.28996-18.96111-4.22282-20.08151-5.97843.78013-4.96187,4.10133-10.80877,6.77348-15.32961,4.90207-8.29352,12.07257-17.36086,19.33804-23.66196,6.6243-5.74504,14.65396-9.57986,21.46965-15.01997-5.8681,1.15537-36.75517-12.62857-35.92339-17.37186,12.33125-13.62535,28.27763-23.22609,45.40807-29.65384l24.51066-6.48934c-6.8021-2.85994-13.76668-5.91336-19.90388-10.0861-2.12887-1.44743-12.65146-9.34526-11.65526-11.43345,23.11842-15.4818,51.98939-20.43674,79.55896-18.98068.57556-2.30366-.43116-1.64375-1.2581-2.28502-7.57203-5.87191-14.33808-10.75795-20.76329-18.18315-.91376-1.05598-5.66661-6.57988-4.9686-7.51653,34.03007-7.05917,72.70952-2.15045,104.97926,10.50587,23.55296,9.23756,86.76135,49.1212,98.43532,70.56468,3.41865,6.2796,2.368,9.74267,4.33307,14.66693.90702,2.2729,4.91618,5.88979,6.44106,8.55894,3.85254,6.74353,9.92675,18.50014,9.89014,26.19349-.02034,4.2738-2.6747,7.14752-1.91423,10.76879.4872,2.32,10.74292,16.30996,13.0044,21.05742,3.10283,6.51367,6.18022,14.94925,8.0904,21.90957,2.7773,10.11997,6.23775,18.43322-7.02887,21.49958-2.22538.51436-6.39309-.5175-7.16098,1.90566-.40405,1.27501,1.40234,11.19052.95625,14.89059-.32341,2.68255-2.04497,4.52884-2.06646,6.93355-.02453,2.74494,1.43009,5.4167,1.06956,9.04825-.38391,3.86712-3.49949,6.60469-3.83785,9.20493-.84978,6.53036,2.86325,12.18383.34798,21.32456-7.50056,27.25773-44.54465,3.72347-59.58862,17.41234-2.65425,2.41517-11.57907,17.26079-13.76049,21.23951-7.60444,13.86977-12.32023,29.43206-13.19923,45.3102-52.38027-8.27344-112.56923-32.33509-120.00754-92.00255-12.3201,15.32112-24.46218,32.31061-43.3864,39.92098-8.69863-13.84917-6.94722-32.16968-5.61167-47.92321-2.24196,1.20202-16.4163,14.72167-17.9846,12.99487-.86951-8.62297,1.23083-16.68808,2.98475-24.99473-13.3579,7.14175-28.68061,11.77026-43.99519,11.00489-.72635-26.14423,8.70783-51.40725,27.00515-70.00517-6.60204-.4824-14.00782.65877-20.5,0ZM297.19701,143.19718v2c-24.75814-16.85525-67.95229-32.44437-98-32-.9274.01372-3.01035-.40297-3.01021.5l3.01021.5c-.3,4.61526,5.14644,6.28867,6.99988,9.98991-6.69024-.91167-12.82057-4.18853-19.62145-4.86833-12.24772-1.22425-24.49225.29646-36.38326,2.88554-.14895,1.85508-.23812,2.94189,1.02003,4.4782,1.20639,1.47309,13.95463,8.13002,16.62813,9.37134,25.5568,11.86615,84.09896,15.68262,102.35666,35.14334-8.75505-1.2926-17.54403-5.78295-26.23575-8.26425-32.86495-9.38223-68.49225-13.55848-101.7582-3.72455l14.99395,8.9888h-19.5c-4.047,0-19.68615,5.11093-24.02283,6.97719-4.13472,1.77935-6.91964,2.52944-1.52841,5.57413,9.14887,5.1668,31.14809,9.88522,41.54313,9.43756,4.57969-.19722,10.33026-1.82351,14.96639-2.03061,28.82213-1.2875,57.79679,3.46147,84.53424,14.05434.25356,1.7142-2.3713,1.06104-3.47186.97521-8.41935-.65664-17.45959-3.10917-26.03029-3.97819-34.78333-3.52681-71.45438-2.89769-102.48257,15.00331l14.98728,4.48212c-12.89954,4.60262-24.92347,8.30895-35.46552,17.5345-1.85618,1.62438-7.37653,5.733-4.27584,7.18803,16.72908,7.85027,50.27537-3.93962,68.53703-6.92684,23.81148-3.89506,48.30195-4.65609,72.20401-1.28037-.12281,1.41159-4.48436,1.751-5.61878,1.86645-5.82381.59268-12.02311.45741-17.86636,1.13279-34.02833,3.93308-71.45005,11.25843-95.50465,37.49529,4.45982,1.25839,8.81336-.68302,13.50036-.51685,1.13252.04015,2.75788-.62132,2.48687.99901-14.72148,7.75105-26.96827,22.45585-29.9873,39.0075,16.0365-1.04643,31.63504-9.3917,45.66658-16.82309,1.10446-.58494,10.46404-7.60095,9.3137-3.69141-1.10668,3.76116-7.29922,6.90823-7.49623,11.49866,18.22045-12.30751,35.65292-27.13289,57.49099-32.48859-27.59887,19.6424-52.77873,44.61445-49.97493,81.50503,1.62582.39676,2.31714-.33348,3.51887-.97164,2.24566-1.19251,10.3504-8.35479,12.51639-10.48327,25.27085-24.83325,29.55916-55.48868,51.98672-82.01328,2.31773-2.74113,10.54768-9.49186,11.49592-11.56128.74414-1.62399-.87916-12.0174-.26266-16.20444.50277-3.41462,3.69271-11.00336,5.73975-13.76127.25383-.34198.69575-.63686,1-1,2.15104-2.56741,6.03998-4.9868,8.43331-8.06675,4.56707-5.8773,8.64379-15.56826,12.56669-20.93325,5.43402-7.43162,21.44856-18.98688,25-27,.21605-.48749,1.1781-1.04683,1-2,2.11517.12634,3.75293-.96632,5.33792-2.16349l23.66147-18.82089c-17.42295-11.99102-34.81881-21.28153-53.99939-30.01563v-1c19.36698,3.33213,38.39611,14.57245,54.24815,25.98109.96738.69621,1.20274,2.5284,2.39516,2.91481,2.5828.83696,10.38084-4.10891,13.08234-5.67766.61087-.35473,1.95968-.03416,1.2656-1.70421-1.02626-2.46935-18.63562-15.59774-22.07983-17.92545-18.54402-12.53269-39.77468-22.56083-61.91143-26.58857-.57353-.10435-1.44121-1.63852-2.99993-.99001-.14176,1.18168,1.72745,1.50998,1.99993,1.99001.70246,1.23752,3.62446,8.68146,4,9-5.36378-5.89133-35.0158-13.69458-43.4868-14.07494-3.19526-.14347-6.22578,1.5877-9.02583.09799-.40027,1.21505,1.24031,3.09999,1.97927,4.01048,3.43605,4.23358,15.65019,18.05427,19.6092,20.39063,4.65934,2.74965,13.53207,4.05213,18.88295,6.11705,21.70325,8.37537,34.20844,15.72005,52.04121,30.45879ZM379.19678,159.18714c.43723-.3484-5.69238-8.09342-6.48543-9.0043-2.35159-2.70101-11.89818-12.23995-14.53317-13.46854-4.1401-1.93037-12.53086,2.42336-16.65504,4.30903-21.34082,9.75754-45.60598,30.49643-60.2985,48.7015-1.48125,1.83537-13.27892,17.34877-12.02287,18.46729,9.45327-.13595,16.48874,3.80568,24.39876,8.08629,17.05297-20.38304,39.18677-37.54921,63.2387-48.939,6.89304-3.2642,14.86995-7.11675,22.35755-8.15227ZM396.19174,207.19214c.2777-8.63956-4.26275-18.44524-8.97048-25.5192-6.9489-10.44159-8.54653-9.37438-19.55023-5.50164-8.68224,3.05571-18.03582,8.09559-25.38754,13.61236-17.27728,12.96497-14.96175,24.10143-25.67785,40.32215-1.86521,2.82332-12.3398,14.30822-12.4587,15.64131-.71905,8.06224,25.87995,22.33022,27.02816,32.96175l-33.97386-13.50565c5.66296,12.86377,3.29727,30.64042,9.79058,42.69915,8.03707,14.92562,47.32825,31.81915,63.68789,36.31211,7.5826,2.08246,18.76792,6.05536,25.1784-.35619,5.73931-5.74027,5.30892-21.99665-4.65637-23.15631,18.03722-8.84232,13.00956-17.87878-6.24597-15.24664-4.1522.56759-7.11811,2.82187-10.29107,3.71674-4.14106,1.1679.89065-6.52909,4.5166-7.57881,1.85951-.53833,3.47793.54117,5.06.16064,5.61433-1.35037,10.79995-4.18306,17.02265-3.99025,2.79172-1.88612-.60112-13.26988-.0647-16.57033-5.56142-1.26821-14.57931,3.38816-19.08938-.40872-5.87709-4.94773.75457-20.89961,9.08236-20.58198-1.11471,4.58899-4.51165,9.11578-1.85182,13.85326,8.54677-.9639,16.81479-.83475,25.27848,1.02537,1.8164-.43009,1.54725-2.94886,1.63919-4.34813.69552-10.58465-8.79592-36.18062-15.23301-44.86403-1.70645-2.30194-6.51374-8.30821-9.6533-6.48106-.51652,5.71919-9.80715,6.90268-10.95268,8.03056-1.2244,1.20554-.08247,6.46009-2.6595,5.72702-2.97781-.84707-6.61712-5.91875-10.27315-6.73811-5.77035-1.2932-11.57114.91457-17.28926.77958,6.29707-6.27723,15.58927-10.22029,23.99748-13.00199-6.51747-10.06267-17.74308-4.24373-26.99271-4.48304,14.79595-17.56956,31.27265-8.92973,48.98978-2.50993ZM294.89795,240.63329c0-13.89172-11.26146-25.15318-25.15318-25.15318s-25.15318,11.26146-25.15318,25.15318,11.26146,25.15318,25.15318,25.15318,25.15318-11.26146,25.15318-25.15318ZM241.21215,371.19408c-.46445-.46007-5.24364-10.29516-5.78849-11.72357-11.00839-28.86055,5.05481-51.16627,12.49358-77.05301,3.6033-12.53941,4.99581-21.95123-7.69323-7.69331-12.04125,13.53004-23.61765,35.85569-24.89889,54.10096-2.50097,35.61476,27.08616,62.61023,57.30731,75.3409,17.72199-41.26394,22.34224-87.05106,6.52969-129.93897l-6.85436,1.07693c-1.98597,38.11091,1.12626,77.23692-11.12329,113.88577-1.39966-.10479-1.76393-4.52448-1.86199-5.61894-2.46185-27.47694-.40216-55.44647-2.08436-82.91459-.17448-2.84897-1.32334-5.5543-1.05108-8.45426l-8.25193,22.23328c-2.45195,10.86933-5.42413,23.0702-5.77932,34.22032-.22066,6.9272,1.84687,14.88212,1.04007,21.06258-.18058,1.38334-.53173,2.91418-1.98371,1.4759ZM307.19268,420.19815c.99025-18.13422,9.25639-34.46497,16.90034-50.47955-4.8187-14.23076-12.16409-28.90522-22.88601-39.52115,1.8444,28.76944-3.39077,55.82409-15.01441,81.98862l21.00007,8.01208Z"/>
  <path class="uuid-854eb711-d256-4939-88aa-c55df99a5518" d="M282.31416,254.07315l-9.96838-16.22989c2.00124-1.97652,9.22496-10.69571,11.3632-10.70286,6.29035-.02104,9.1093,27.47354-1.39482,26.93275Z"/>
  <path class="uuid-43aaa6ec-29b7-4dad-86c7-1baca188c737" d="M268.17881,243.20276l8.99806,15.43652c-2.30298,3.14402-12.67957,3.68265-14.55066.5621,1.32043-5.72551-1.91035-14.59604,5.5526-15.99862Z"/>
  <path class="uuid-f38a8086-00cf-4d0a-8c4a-7c285d4660ae" d="M262.19701,238.19718v-15.5c2.29608-3.22078,15.08373-3.20186,15.05018.99977-.0109,1.365-10.27897,11.65529-12.04347,13.00666-1.00779.77183-1.26147,1.92891-3.0067,1.49357Z"/>
  <path class="uuid-23a18839-d67d-4633-8edc-8112b4c91175" d="M257.19175,255.19216c-.97998,1.15991-4.25802-2.64451-4.8464-3.64328-4.68146-7.94676-3.99921-19.2629,3.3566-25.34669l1.4898,28.98997Z"/>
</svg>